HIERARCHY
ROOT Hips
{
    OFFSET   0.000000   0.000000   0.000000
    CHANNELS 6 Xposition Yposition Zposition Zrotation Xrotation Yrotation
    JOINT Chest
    {
        OFFSET   0.000000   8.007240   0.000000
        CHANNELS 3 Zrotation Xrotation Yrotation
        JOINT Chest2
        {
            OFFSET   0.000000  22.077100   0.000000
            CHANNELS 3 Zrotation Xrotation Yrotation
            JOINT Neck
            {
                OFFSET   0.000000  23.254800   0.000000
                CHANNELS 3 Zrotation Xrotation Yrotation
                JOINT Head
                {
                    OFFSET   0.000000  14.370000   1.956600
                    CHANNELS 3 Zrotation Xrotation Yrotation
                    End Site
                    {
                        OFFSET   0.000000  19.566000   0.000000
                    }
                }
            }
            JOINT LeftCollar
            {
                OFFSET   3.911900  19.017000  -0.467064
                CHANNELS 3 Zrotation Xrotation Yrotation
                JOINT LeftShoulder
                {
                    OFFSET  10.383700   0.000000   0.000000
                    CHANNELS 3 Zrotation Xrotation Yrotation
                    JOINT LeftElbow
                    {
                        OFFSET  26.662100   0.001476   0.000517
                        CHANNELS 3 Zrotation Xrotation Yrotation
                        JOINT LeftWrist
                        {
                            OFFSET  28.869000  -0.000025  -0.000106
                            CHANNELS 3 Zrotation Xrotation Yrotation
                            JOINT LeftFinger0
                            {
                                OFFSET   2.044660  -2.323460   3.252850
                                CHANNELS 3 Zrotation Xrotation Yrotation
                                JOINT LeftFinger01
                                {
                                    OFFSET   3.088130   0.000000   0.000000
                                    CHANNELS 3 Zrotation Xrotation Yrotation
                                    JOINT LeftFinger02
                                    {
                                        OFFSET   2.639460   0.000000   0.000000
                                        CHANNELS 3 Zrotation Xrotation Yrotation
                                        End Site
                                        {
                                            OFFSET   2.582190   0.000000   0.000000
                                        }
                                    }
                                }
                            }
                            JOINT LeftFinger1
                            {
                                OFFSET   8.364480   0.000000   3.252850
                                CHANNELS 3 Zrotation Xrotation Yrotation
                                JOINT LeftFinger11
                                {
                                    OFFSET   4.646930   0.000000   0.000000
                                    CHANNELS 3 Zrotation Xrotation Yrotation
                                    JOINT LeftFinger12
                                    {
                                        OFFSET   2.323460   0.000000   0.000000
                                        CHANNELS 3 Zrotation Xrotation Yrotation
                                        End Site
                                        {
                                            OFFSET   2.273050   0.000000   0.000000
                                        }
                                    }
                                }
                            }
                            JOINT LeftFinger2
                            {
                                OFFSET   8.364490   0.000015   1.078090
                                CHANNELS 3 Zrotation Xrotation Yrotation
                                JOINT LeftFinger21
                                {
                                    OFFSET   5.111620   0.000000   0.000000
                                    CHANNELS 3 Zrotation Xrotation Yrotation
                                    JOINT LeftFinger22
                                    {
                                        OFFSET   2.788160   0.000016   0.000000
                                        CHANNELS 3 Zrotation Xrotation Yrotation
                                        End Site
                                        {
                                            OFFSET   2.727660   0.000000   0.000000
                                        }
                                    }
                                }
                            }
                            JOINT LeftFinger3
                            {
                                OFFSET   7.899780   0.000017  -1.078090
                                CHANNELS 3 Zrotation Xrotation Yrotation
                                JOINT LeftFinger31
                                {
                                    OFFSET   4.646930   0.000000   0.000000
                                    CHANNELS 3 Zrotation Xrotation Yrotation
                                    JOINT LeftFinger32
                                    {
                                        OFFSET   2.323470   0.000000   0.000000
                                        CHANNELS 3 Zrotation Xrotation Yrotation
                                        End Site
                                        {
                                            OFFSET   2.273050   0.000000   0.000000
                                        }
                                    }
                                }
                            }
                            JOINT LeftFinger4
                            {
                                OFFSET   7.435090   0.000000  -3.252850
                                CHANNELS 3 Zrotation Xrotation Yrotation
                                JOINT LeftFinger41
                                {
                                    OFFSET   3.717550   0.000000   0.000000
                                    CHANNELS 3 Zrotation Xrotation Yrotation
                                    JOINT LeftFinger42
                                    {
                                        OFFSET   1.858770   0.000000   0.000000
                                        CHANNELS 3 Zrotation Xrotation Yrotation
                                        End Site
                                        {
                                            OFFSET   1.818440   0.000000   0.000000
                                        }
                                    }
                                }
                            }
                        }
                    }
                }
            }
            JOINT RightCollar
            {
                OFFSET  -3.911900  19.017000  -0.467063
                CHANNELS 3 Zrotation Xrotation Yrotation
                JOINT RightShoulder
                {
                    OFFSET -10.383700   0.000019   0.000000
                    CHANNELS 3 Zrotation Xrotation Yrotation
                    JOINT RightElbow
                    {
                        OFFSET -26.662100   0.001175   0.000102
                        CHANNELS 3 Zrotation Xrotation Yrotation
                        JOINT RightWrist
                        {
                            OFFSET -28.869000   0.000016  -0.000079
                            CHANNELS 3 Zrotation Xrotation Yrotation
                            JOINT RightFinger0
                            {
                                OFFSET  -2.044660  -2.323490   3.252850
                                CHANNELS 3 Zrotation Xrotation Yrotation
                                JOINT RightFinger01
                                {
                                    OFFSET  -3.088140   0.000000   0.000000
                                    CHANNELS 3 Zrotation Xrotation Yrotation
                                    JOINT RightFinger02
                                    {
                                        OFFSET  -2.639460   0.000000   0.000000
                                        CHANNELS 3 Zrotation Xrotation Yrotation
                                        End Site
                                        {
                                            OFFSET  -2.582190   0.000000   0.000000
                                        }
                                    }
                                }
                            }
                            JOINT RightFinger1
                            {
                                OFFSET  -8.364480   0.000000   3.252850
                                CHANNELS 3 Zrotation Xrotation Yrotation
                                JOINT RightFinger11
                                {
                                    OFFSET  -4.646930   0.000000   0.000000
                                    CHANNELS 3 Zrotation Xrotation Yrotation
                                    JOINT RightFinger12
                                    {
                                        OFFSET  -2.323470   0.000000   0.000000
                                        CHANNELS 3 Zrotation Xrotation Yrotation
                                        End Site
                                        {
                                            OFFSET  -2.273050   0.000000   0.000000
                                        }
                                    }
                                }
                            }
                            JOINT RightFinger2
                            {
                                OFFSET  -8.364480   0.000000   1.078090
                                CHANNELS 3 Zrotation Xrotation Yrotation
                                JOINT RightFinger21
                                {
                                    OFFSET  -5.111620   0.000000   0.000000
                                    CHANNELS 3 Zrotation Xrotation Yrotation
                                    JOINT RightFinger22
                                    {
                                        OFFSET  -2.788160   0.000000   0.000000
                                        CHANNELS 3 Zrotation Xrotation Yrotation
                                        End Site
                                        {
                                            OFFSET  -2.727660   0.000000   0.000000
                                        }
                                    }
                                }
                            }
                            JOINT RightFinger3
                            {
                                OFFSET  -7.899780   0.000000  -1.078090
                                CHANNELS 3 Zrotation Xrotation Yrotation
                                JOINT RightFinger31
                                {
                                    OFFSET  -4.646930   0.000000   0.000000
                                    CHANNELS 3 Zrotation Xrotation Yrotation
                                    JOINT RightFinger32
                                    {
                                        OFFSET  -2.323470   0.000000   0.000000
                                        CHANNELS 3 Zrotation Xrotation Yrotation
                                        End Site
                                        {
                                            OFFSET  -2.273050   0.000000   0.000000
                                        }
                                    }
                                }
                            }
                            JOINT RightFinger4
                            {
                                OFFSET  -7.435090   0.000000  -3.252850
                                CHANNELS 3 Zrotation Xrotation Yrotation
                                JOINT RightFinger41
                                {
                                    OFFSET  -3.717550   0.000000   0.000000
                                    CHANNELS 3 Zrotation Xrotation Yrotation
                                    JOINT RightFinger42
                                    {
                                        OFFSET  -1.858770   0.000000   0.000000
                                        CHANNELS 3 Zrotation Xrotation Yrotation
                                        End Site
                                        {
                                            OFFSET  -1.818440   0.000000   0.000000
                                        }
                                    }
                                }
                            }
                        }
                    }
                }
            }
        }
    }
    JOINT LeftHip
    {
        OFFSET   9.783040   0.000000   0.000000
        CHANNELS 3 Zrotation Xrotation Yrotation
        JOINT LeftKnee
        {
            OFFSET   0.000032 -41.789100  -0.002222
            CHANNELS 3 Zrotation Xrotation Yrotation
            JOINT LeftAnkle
            {
                OFFSET   0.000087 -41.133200  -0.000135
                CHANNELS 3 Zrotation Xrotation Yrotation
                JOINT LeftToe
                {
                    OFFSET   0.000000  -6.358960  14.674500
                    CHANNELS 3 Zrotation Xrotation Yrotation
                    End Site
                    {
                        OFFSET   0.000000   0.000000   3.913200
                    }
                }
            }
        }
    }
    JOINT RightHip
    {
        OFFSET  -9.783040   0.000000   0.000000
        CHANNELS 3 Zrotation Xrotation Yrotation
        JOINT RightKnee
        {
            OFFSET   0.000047 -41.789100  -0.000896
            CHANNELS 3 Zrotation Xrotation Yrotation
            JOINT RightAnkle
            {
                OFFSET  -0.000117 -41.133300  -0.000248
                CHANNELS 3 Zrotation Xrotation Yrotation
                JOINT RightToe
                {
                    OFFSET   0.000000  -6.358970  14.674500
                    CHANNELS 3 Zrotation Xrotation Yrotation
                    End Site
                    {
                        OFFSET   0.000000   0.000000   3.913200
                    }
                }
            }
        }
    }
}
MOTION
Frames: 4
Frame Time:   0.016667
 -7.243390  89.170300  -2.916990  -1.571560 -11.081000   0.531414   1.032000   4.076370   0.814808   2.013310   8.166430   1.561630   2.207420  -5.004920   0.186995   3.704990 -10.103300   5.643410   3.724310  -7.229190  -8.099290 -49.873800 -47.478400 -95.216200  16.429000 -33.974700  -6.613250  15.125100 -21.351700  -5.228180  40.358100  30.757600 -71.442200  -8.957760  -0.002690   0.002484   0.521123  -0.002757  -0.000125 -20.184500   4.839770 -12.925800 -16.963400   0.000597  -0.004101 -11.874400   0.005442  -0.008221 -23.415900   2.570830  -5.913180 -23.548700  -0.001339  -0.008303 -15.683400  -0.001151   0.004946 -18.768400   1.080260  -3.175600 -18.798400   0.006016   0.001357 -12.519700  -0.000178   0.002252 -14.240100   0.373960  -1.473120 -21.367300   0.001225  -0.000000 -14.230600  -0.000487   0.004988  -7.272890 -10.390000   1.864040   8.755280 -45.264800  53.425000 -20.107200 -18.641700   0.662737 -20.651800 -21.695900  16.157100 -54.768200  38.943900  76.319500  -6.629100  -0.003605  -0.003916  -8.314540  -0.000128  -0.008571  19.571800   5.955820  16.270000  16.710600   0.001699  -0.003825  11.697400   0.000906   0.002312  22.130800   4.864900  11.779000  22.632900   0.003200  -0.002604  15.073500  -0.007099   0.005443  23.879700   4.698700  10.481700  24.310800   0.002898  -0.001091  16.191000   0.002013  -0.000988  25.112200   1.915680   4.081480  37.770700   0.000448   0.005418  25.155200  -0.005056   0.003248   6.483060  14.087300   3.751970   2.124770   2.730040  14.713700  -9.321630  -3.556820   2.166310  -0.000000   0.000000   0.000000   3.478800  10.991000  -5.076390   1.975180   4.009350  -9.558600  -5.425610  -4.917330  -5.232450   0.000000   0.000000  -0.000000
 -7.320310  89.162100  -2.903090  -1.584630 -11.095000   0.511109   1.027830   4.074460   0.822875   2.004340   8.162800   1.578170   2.199740  -4.976340   0.186841   3.688500 -10.046000   5.606740   3.734090  -7.238520  -8.120540 -49.724800 -47.516700 -95.023100  16.420000 -34.026900  -6.643900  15.117000 -21.297100  -5.289120  40.276200  30.635700 -71.348500  -9.027980  -0.002651   0.002436   0.486005  -0.002739  -0.000116 -20.295900   4.885330 -12.945600 -17.059500   0.000567  -0.004169 -11.941600   0.005525  -0.008345 -23.406500   2.566280  -5.904860 -23.538700  -0.001310  -0.008450 -15.676800  -0.001105   0.004994 -18.791300   1.092790  -3.202950 -18.822000   0.006095   0.001270 -12.535400  -0.000086   0.002233 -14.296400   0.372678  -1.466370 -21.451700   0.001259  -0.000025 -14.286800  -0.000436   0.004995  -7.263780 -10.359000   1.813820   8.745590 -45.219700  53.364000 -20.188800 -18.633300   0.711575 -20.564400 -21.753100  16.095100 -54.889200  39.001000  76.371000  -6.743220  -0.003653  -0.004030  -8.371610  -0.000213  -0.008571  19.564400   5.971700  16.329100  16.712300   0.001699  -0.003922  11.698600   0.000905   0.002347  22.205400   4.946600  11.927000  22.722300   0.003146  -0.002645  15.133000  -0.006981   0.005528  24.002200   4.770390  10.574100  24.443200   0.002891  -0.001051  16.279200   0.002021  -0.000964  25.307300   1.895410   4.002080  38.060300   0.000496   0.005569  25.348100  -0.004978   0.003311   6.529750  14.074000   3.753090   2.159750   2.818710  14.748000  -9.385970  -3.589520   2.131510   0.000000   0.000000  -0.000000   3.539040  11.015000  -5.094280   1.987250   3.987480  -9.560720  -5.456260  -4.920740  -5.195970  -0.000000   0.000000  -0.000000
 -7.396320  89.153700  -2.891840  -1.597460 -11.108300   0.488573   1.024700   4.074180   0.831459   1.997470   8.162220   1.595620   2.188190  -4.954050   0.186702   3.672390 -10.001500   5.579340   3.736660  -7.253690  -8.143490 -49.580400 -47.551600 -94.836200  16.391500 -34.082600  -6.723730  15.101700 -21.251400  -5.360920  40.137000  30.473500 -71.223900  -9.150040  -0.002618   0.002388   0.424967  -0.002723  -0.000107 -20.391800   4.902810 -12.948600 -17.139700   0.000537  -0.004236 -11.997800   0.005607  -0.008469 -23.404200   2.554950  -5.880270 -23.535400  -0.001280  -0.008595 -15.674600  -0.001058   0.005042 -18.833900   1.094770  -3.206860 -18.864500   0.006172   0.001185 -12.563700   0.000000   0.002211 -14.392300   0.363703  -1.419160 -21.595100   0.001293  -0.000066 -14.382300  -0.000387   0.005005  -7.254930 -10.345200   1.767510   8.740060 -45.178000  53.309100 -20.268800 -18.624800   0.766098 -20.451500 -21.771000  16.065100 -55.047500  39.068600  76.457900  -6.838480  -0.003702  -0.004147  -8.419250  -0.000304  -0.008571  19.575300   6.003630  16.388700  16.724100   0.001699  -0.004021  11.706900   0.000905   0.002382  22.279500   5.028180  12.075100  22.811600   0.003090  -0.002687  15.192500  -0.006862   0.005613  24.087200   4.827790  10.662100  24.538000   0.002885  -0.001007  16.342300   0.002029  -0.000938  25.427500   1.882980   3.953110  38.238800   0.000544   0.005722  25.467000  -0.004900   0.003371   6.575990  14.058500   3.757620   2.193310   2.908790  14.779100  -9.449960  -3.622450   2.097170   0.000000   0.000000  -0.000000   3.599830  11.039000  -5.106980   1.997140   3.963510  -9.562820  -5.488710  -4.923840  -5.158580   0.000000   0.000000   0.000000
 -7.473840  89.145100  -2.884040  -1.612300 -11.118700   0.458630   1.021720   4.076790   0.842867   1.990660   8.167650   1.618690   2.180170  -4.941120   0.186561   3.660230  -9.975700   5.556980   3.729890  -7.279740  -8.178020 -49.439100 -47.590700 -94.661400  16.333400 -34.127700  -6.856210  15.010700 -21.202200  -5.432720  40.112900  30.398900 -71.139400  -9.287170  -0.002597   0.002337   0.356406  -0.002712  -0.000098 -20.469100   4.901770 -12.909600 -17.201200   0.000515  -0.004298 -12.040800   0.005690  -0.008586 -23.421600   2.532320  -5.823510 -23.550000  -0.001245  -0.008741 -15.684400  -0.001012   0.005088 -18.887000   1.073250  -3.127270 -18.916600   0.006248   0.001105 -12.598400   0.000044   0.002193 -14.494300   0.327442  -1.265100 -21.747000   0.001324  -0.000097 -14.483500  -0.000335   0.005009  -7.248810 -10.346400   1.729470   8.751380 -45.141700  53.271400 -20.346200 -18.562600   0.812289 -20.344700 -21.701200  16.066900 -55.008800  39.079300  76.534200  -6.876570  -0.003744  -0.004273  -8.438300  -0.000395  -0.008572  19.723200   6.050370  16.385300  16.840600   0.001693  -0.004124  11.788500   0.000907   0.002423  22.252300   5.012850  12.054900  22.781800   0.003047  -0.002734  15.172600  -0.006732   0.005704  24.009800   4.806590  10.653700  24.455300   0.002886  -0.000963  16.287200   0.002040  -0.000927  25.321500   1.894190   3.996140  38.081500   0.000591   0.005887  25.362300  -0.004820   0.003432   6.623440  14.040000   3.769760   2.222300   2.997110  14.804600  -9.513140  -3.654190   2.069340  -0.000000   0.000000   0.000000   3.663360  11.054700  -5.120120   2.003580   3.944770  -9.562520  -5.530110  -4.927280  -5.118510  -0.000000   0.000000   0.000000
